<svg width="130" height="19" viewBox="0 0 130 19" fill="none" xmlns="http://www.w3.org/2000/svg">
<path d="M4.03906 11.9883V18H0.523438V0.9375H7.17969C8.46094 0.9375 9.58594 1.17188 10.5547 1.64062C11.5312 2.10938 12.2812 2.77734 12.8047 3.64453C13.3281 4.50391 13.5898 5.48438 13.5898 6.58594C13.5898 8.25781 13.0156 9.57812 11.8672 10.5469C10.7266 11.5078 9.14453 11.9883 7.12109 11.9883H4.03906ZM4.03906 9.14062H7.17969C8.10938 9.14062 8.81641 8.92188 9.30078 8.48438C9.79297 8.04688 10.0391 7.42188 10.0391 6.60938C10.0391 5.77344 9.79297 5.09766 9.30078 4.58203C8.80859 4.06641 8.12891 3.80078 7.26172 3.78516H4.03906V9.14062ZM19.3672 18H15.9688V5.32031H19.3672V18ZM15.7695 2.03906C15.7695 1.53125 15.9375 1.11328 16.2734 0.785156C16.6172 0.457031 17.082 0.292969 17.668 0.292969C18.2461 0.292969 18.707 0.457031 19.0508 0.785156C19.3945 1.11328 19.5664 1.53125 19.5664 2.03906C19.5664 2.55469 19.3906 2.97656 19.0391 3.30469C18.6953 3.63281 18.2383 3.79688 17.668 3.79688C17.0977 3.79688 16.6367 3.63281 16.2852 3.30469C15.9414 2.97656 15.7695 2.55469 15.7695 2.03906ZM26.0586 15.2695H32.2578V18H21.7344V15.9375L27.6992 8.0625H21.9102V5.32031H32.0703V7.32422L26.0586 15.2695ZM38.2695 15.2695H44.4688V18H33.9453V15.9375L39.9102 8.0625H34.1211V5.32031H44.2812V7.32422L38.2695 15.2695ZM53.9375 18C53.7812 17.6953 53.668 17.3164 53.5977 16.8633C52.7773 17.7773 51.7109 18.2344 50.3984 18.2344C49.1562 18.2344 48.125 17.875 47.3047 17.1562C46.4922 16.4375 46.0859 15.5312 46.0859 14.4375C46.0859 13.0938 46.582 12.0625 47.5742 11.3438C48.5742 10.625 50.0156 10.2617 51.8984 10.2539H53.457V9.52734C53.457 8.94141 53.3047 8.47266 53 8.12109C52.7031 7.76953 52.2305 7.59375 51.582 7.59375C51.0117 7.59375 50.5625 7.73047 50.2344 8.00391C49.9141 8.27734 49.7539 8.65234 49.7539 9.12891H46.3672C46.3672 8.39453 46.5938 7.71484 47.0469 7.08984C47.5 6.46484 48.1406 5.97656 48.9688 5.625C49.7969 5.26562 50.7266 5.08594 51.7578 5.08594C53.3203 5.08594 54.5586 5.48047 55.4727 6.26953C56.3945 7.05078 56.8555 8.15234 56.8555 9.57422V15.0703C56.8633 16.2734 57.0312 17.1836 57.3594 17.8008V18H53.9375ZM51.1367 15.6445C51.6367 15.6445 52.0977 15.5352 52.5195 15.3164C52.9414 15.0898 53.2539 14.7891 53.457 14.4141V12.2344H52.1914C50.4961 12.2344 49.5938 12.8203 49.4844 13.9922L49.4727 14.1914C49.4727 14.6133 49.6211 14.9609 49.918 15.2344C50.2148 15.5078 50.6211 15.6445 51.1367 15.6445Z" fill="#39B24A"/>
<path d="M58.9883 13.4062C58.9883 12.6172 59.207 11.8867 59.6445 11.2148C60.0898 10.543 60.9023 9.79688 62.082 8.97656C61.5742 8.29688 61.1758 7.66016 60.8867 7.06641C60.5977 6.46484 60.4531 5.83984 60.4531 5.19141C60.4531 3.86328 60.8711 2.78516 61.707 1.95703C62.5508 1.12109 63.6836 0.703125 65.1055 0.703125C66.3789 0.703125 67.4219 1.08203 68.2344 1.83984C69.0547 2.59766 69.4648 3.54297 69.4648 4.67578C69.4648 6.03516 68.7773 7.23438 67.4023 8.27344L66.0898 9.22266L69.0312 12.6445C69.4922 11.7383 69.7227 10.7383 69.7227 9.64453H72.6055C72.6055 11.8633 72.0938 13.6602 71.0703 15.0352L73.625 18H69.7812L68.9023 16.9922C67.6445 17.8203 66.1992 18.2344 64.5664 18.2344C62.8789 18.2344 61.5273 17.793 60.5117 16.9102C59.4961 16.0195 58.9883 14.8516 58.9883 13.4062ZM64.7305 15.5156C65.543 15.5156 66.3125 15.2891 67.0391 14.8359L63.6758 10.9453L63.4297 11.1211C62.7344 11.7148 62.3867 12.4141 62.3867 13.2188C62.3867 13.8984 62.6016 14.4531 63.0312 14.8828C63.4688 15.3047 64.0352 15.5156 64.7305 15.5156ZM63.4883 5.14453C63.4883 5.73047 63.832 6.46875 64.5195 7.35938L65.4219 6.76172C65.8828 6.46484 66.1992 6.17578 66.3711 5.89453C66.5508 5.61328 66.6406 5.27734 66.6406 4.88672C66.6406 4.49609 66.4961 4.15625 66.207 3.86719C65.918 3.57812 65.5469 3.43359 65.0938 3.43359C64.6094 3.43359 64.2188 3.58984 63.9219 3.90234C63.6328 4.21484 63.4883 4.62891 63.4883 5.14453Z" fill="white"/>
<path d="M85.6953 11.0273H78.9453V18H75.4297V0.9375H86.5391V3.78516H78.9453V8.19141H85.6953V11.0273ZM95.1758 8.49609C94.7148 8.43359 94.3086 8.40234 93.957 8.40234C92.6758 8.40234 91.8359 8.83594 91.4375 9.70312V18H88.0508V5.32031H91.25L91.3438 6.83203C92.0234 5.66797 92.9648 5.08594 94.168 5.08594C94.543 5.08594 94.8945 5.13672 95.2227 5.23828L95.1758 8.49609ZM95.8672 11.543C95.8672 10.2852 96.1094 9.16406 96.5938 8.17969C97.0781 7.19531 97.7734 6.43359 98.6797 5.89453C99.5938 5.35547 100.652 5.08594 101.855 5.08594C103.566 5.08594 104.961 5.60938 106.039 6.65625C107.125 7.70312 107.73 9.125 107.855 10.9219L107.879 11.7891C107.879 13.7344 107.336 15.2969 106.25 16.4766C105.164 17.6484 103.707 18.2344 101.879 18.2344C100.051 18.2344 98.5898 17.6484 97.4961 16.4766C96.4102 15.3047 95.8672 13.7109 95.8672 11.6953V11.543ZM99.2539 11.7891C99.2539 12.9922 99.4805 13.9141 99.9336 14.5547C100.387 15.1875 101.035 15.5039 101.879 15.5039C102.699 15.5039 103.34 15.1914 103.801 14.5664C104.262 13.9336 104.492 12.9258 104.492 11.543C104.492 10.3633 104.262 9.44922 103.801 8.80078C103.34 8.15234 102.691 7.82812 101.855 7.82812C101.027 7.82812 100.387 8.15234 99.9336 8.80078C99.4805 9.44141 99.2539 10.4375 99.2539 11.7891ZM113.082 5.32031L113.188 6.78516C114.094 5.65234 115.309 5.08594 116.832 5.08594C118.176 5.08594 119.176 5.48047 119.832 6.26953C120.488 7.05859 120.824 8.23828 120.84 9.80859V18H117.453V9.89062C117.453 9.17188 117.297 8.65234 116.984 8.33203C116.672 8.00391 116.152 7.83984 115.426 7.83984C114.473 7.83984 113.758 8.24609 113.281 9.05859V18H109.895V5.32031H113.082ZM127.473 2.20312V5.32031H129.641V7.80469H127.473V14.1328C127.473 14.6016 127.562 14.9375 127.742 15.1406C127.922 15.3438 128.266 15.4453 128.773 15.4453C129.148 15.4453 129.48 15.418 129.77 15.3633V17.9297C129.105 18.1328 128.422 18.2344 127.719 18.2344C125.344 18.2344 124.133 17.0352 124.086 14.6367V7.80469H122.234V5.32031H124.086V2.20312H127.473Z" fill="#FC200C"/>
</svg>
